<svg width="66" height="43" viewBox="0 0 66 43" fill="none" xmlns="http://www.w3.org/2000/svg">
<path d="M33.2608 37.533C26.3918 37.4931 19.6086 36.1804 13.3495 33.6795C12.9769 33.5328 12.6607 33.2935 12.4393 32.9907C12.2179 32.688 12.101 32.3349 12.1027 31.9744V16.8437C12.1033 16.3481 12.3264 15.8728 12.7231 15.5223C13.1197 15.1718 13.6575 14.9747 14.2185 14.9741H52.3032C52.8641 14.9747 53.4019 15.1718 53.7986 15.5223C54.1952 15.8728 54.4184 16.3481 54.419 16.8437V31.9744C54.4207 32.3349 54.3037 32.688 54.0824 32.9907C53.861 33.2935 53.5447 33.5328 53.1721 33.6795C46.9131 36.1804 40.1299 37.4931 33.2608 37.533Z" fill="#6C63FF"/>
<path d="M33.2554 25.2752C32.973 25.2755 32.6935 25.2258 32.4332 25.1292L2.23255 13.87C1.84309 13.7248 1.51177 13.4799 1.28131 13.1668C1.05085 12.8537 0.931819 12.4867 0.939564 12.1133C0.94731 11.7398 1.08149 11.377 1.32477 11.0715C1.56806 10.7661 1.9093 10.5321 2.30452 10.3996L32.5056 0.275451C32.992 0.111637 33.5298 0.112648 34.0155 0.278291L63.8118 10.4024C64.2048 10.5359 64.5438 10.77 64.7853 11.0748C65.0269 11.3795 65.1601 11.741 65.1679 12.1129C65.1756 12.4849 65.0577 12.8505 64.829 13.1629C64.6003 13.4753 64.2714 13.7203 63.8843 13.8666L34.0876 25.1255C33.8245 25.2245 33.5414 25.2755 33.2554 25.2752Z" fill="#6C63FF"/>
<path d="M15.6291 42.5186C17.1871 42.5186 18.4502 41.4026 18.4502 40.0258C18.4502 38.649 17.1871 37.533 15.6291 37.533C14.071 37.533 12.808 38.649 12.808 40.0258C12.808 41.4026 14.071 42.5186 15.6291 42.5186Z" fill="#3F3D56"/>
<path opacity="0.2" d="M63.9875 12.2684L34.1907 23.5274C33.9584 23.6152 33.7085 23.6607 33.4558 23.6612C33.2032 23.6618 32.953 23.6173 32.7202 23.5305L2.5196 12.2717C2.14032 12.1337 1.82391 11.8879 1.62033 11.5733C1.48716 11.7773 1.40465 12.0041 1.37825 12.2385C1.35186 12.4728 1.3822 12.7095 1.46725 12.9327C1.5523 13.156 1.69011 13.3607 1.87155 13.5332C2.05299 13.7058 2.27389 13.8423 2.5196 13.9336L32.7202 25.1924C32.953 25.2792 33.2032 25.3237 33.4558 25.3231C33.7085 25.3226 33.9584 25.2771 34.1907 25.1893L63.9875 13.9303C64.2319 13.8382 64.4515 13.7013 64.6317 13.5286C64.8119 13.356 64.9486 13.1515 65.0327 12.9288C65.1169 12.706 65.1467 12.47 65.1201 12.2364C65.0934 12.0027 65.011 11.7767 64.8783 11.5732C64.6762 11.8854 64.363 12.1298 63.9875 12.2684Z" fill="black"/>
<path d="M15.8659 38.7028C15.9906 38.7028 16.1102 38.6449 16.1984 38.5419C16.2866 38.4388 16.3361 38.2991 16.3361 38.1533V19.7669L31.8433 13.1648C31.968 13.1669 32.0883 13.1111 32.1778 13.0096C32.2673 12.9081 32.3186 12.7692 32.3204 12.6235C32.3223 12.4777 32.2745 12.3371 32.1877 12.2325C32.1008 12.1279 31.982 12.068 31.8573 12.0658L16.3501 18.6679C16.2253 18.6646 16.1013 18.6908 15.9854 18.7452C15.8696 18.7995 15.7644 18.8807 15.6762 18.984C15.5871 19.086 15.5163 19.2078 15.4682 19.3422C15.42 19.4767 15.3954 19.6211 15.3958 19.7669V38.1533C15.3958 38.2991 15.4453 38.4388 15.5335 38.5419C15.6217 38.6449 15.7412 38.7028 15.8659 38.7028Z" fill="#3F3D56"/>
</svg>
