<svg width="576" height="475" viewBox="0 0 576 475" fill="none" xmlns="http://www.w3.org/2000/svg">
<path d="M365.299 350.753V436.715H150.555C126.087 436.715 106.181 417.433 106.181 393.734C106.181 370.035 126.087 350.753 150.555 350.753H365.299Z" fill="#F2F2F2"/>
<path d="M370.573 436.054C370.573 436.93 370.226 437.771 369.607 438.391C368.989 439.011 368.151 439.36 367.277 439.36H146.73C134.751 439.36 123.264 434.588 114.794 426.093C106.324 417.599 101.565 406.078 101.565 394.065C101.565 382.051 106.324 370.53 114.794 362.036C123.264 353.541 134.751 348.769 146.73 348.769H367.277C368.151 348.769 368.99 349.118 369.608 349.738C370.226 350.358 370.573 351.199 370.573 352.075C370.573 352.952 370.226 353.793 369.608 354.413C368.99 355.033 368.151 355.382 367.277 355.382H146.73C136.5 355.382 126.689 359.457 119.456 366.712C112.222 373.966 108.159 383.805 108.159 394.065C108.159 404.324 112.222 414.163 119.456 421.418C126.689 428.672 136.5 432.747 146.73 432.747H367.277C368.151 432.748 368.989 433.096 369.607 433.716C370.226 434.336 370.573 435.177 370.573 436.054Z" fill="#6C63FF"/>
<path d="M365.299 370.59H134.532C134.357 370.59 134.189 370.521 134.066 370.397C133.942 370.273 133.873 370.105 133.873 369.929C133.873 369.754 133.942 369.586 134.066 369.462C134.189 369.338 134.357 369.268 134.532 369.268H365.299C365.473 369.268 365.641 369.338 365.765 369.462C365.888 369.586 365.958 369.754 365.958 369.929C365.958 370.105 365.888 370.273 365.765 370.397C365.641 370.521 365.473 370.59 365.299 370.59Z" fill="#CCCCCC"/>
<path d="M365.299 386.46H134.532C134.357 386.46 134.189 386.391 134.066 386.267C133.942 386.143 133.873 385.974 133.873 385.799C133.873 385.624 133.942 385.456 134.066 385.331C134.189 385.207 134.357 385.138 134.532 385.138H365.299C365.473 385.138 365.641 385.207 365.765 385.331C365.888 385.456 365.958 385.624 365.958 385.799C365.958 385.974 365.888 386.143 365.765 386.267C365.641 386.391 365.473 386.46 365.299 386.46Z" fill="#CCCCCC"/>
<path d="M365.299 402.33H134.532C134.357 402.33 134.189 402.26 134.066 402.136C133.942 402.012 133.873 401.844 133.873 401.669C133.873 401.494 133.942 401.325 134.066 401.201C134.189 401.077 134.357 401.008 134.532 401.008H365.299C365.473 401.008 365.641 401.077 365.765 401.201C365.888 401.325 365.958 401.494 365.958 401.669C365.958 401.844 365.888 402.012 365.765 402.136C365.641 402.26 365.473 402.33 365.299 402.33Z" fill="#CCCCCC"/>
<path d="M365.299 418.2H134.532C134.357 418.2 134.189 418.13 134.066 418.006C133.942 417.882 133.873 417.714 133.873 417.539C133.873 417.364 133.942 417.195 134.066 417.071C134.189 416.947 134.357 416.878 134.532 416.878H365.299C365.473 416.878 365.641 416.947 365.765 417.071C365.888 417.195 365.958 417.364 365.958 417.539C365.958 417.714 365.888 417.882 365.765 418.006C365.641 418.13 365.473 418.2 365.299 418.2Z" fill="#CCCCCC"/>
<path d="M531.265 366.934L477.486 433.871L310.269 298.745C291.217 283.35 287.779 255.809 302.605 237.355C317.432 218.901 344.996 216.413 364.048 231.808L531.265 366.934Z" fill="#F2F2F2"/>
<path d="M482.007 436.675C481.458 437.358 480.662 437.794 479.793 437.888C478.923 437.982 478.053 437.725 477.372 437.176L305.636 298.398C296.309 290.861 290.349 279.916 289.068 267.972C287.787 256.028 291.289 244.063 298.805 234.708C306.32 225.354 317.233 219.377 329.142 218.092C341.052 216.807 352.983 220.32 362.31 227.857L534.046 366.634C534.383 366.907 534.664 367.243 534.871 367.624C535.079 368.005 535.21 368.424 535.256 368.855C535.303 369.287 535.264 369.724 535.142 370.141C535.02 370.558 534.818 370.946 534.546 371.284C534.274 371.623 533.939 371.904 533.558 372.112C533.178 372.32 532.761 372.451 532.33 372.497C531.9 372.544 531.464 372.504 531.049 372.382C530.633 372.259 530.246 372.056 529.909 371.783L358.173 233.006C354.229 229.816 349.698 227.437 344.837 226.005C339.976 224.572 334.881 224.114 329.843 224.656C324.806 225.199 319.924 226.731 315.477 229.166C311.031 231.601 307.106 234.891 303.927 238.848C300.748 242.804 298.378 247.35 296.951 252.226C295.524 257.101 295.069 262.211 295.612 267.263C296.155 272.315 297.685 277.21 300.115 281.669C302.545 286.128 305.826 290.063 309.773 293.249L481.508 432.027C482.189 432.577 482.624 433.376 482.717 434.247C482.811 435.119 482.555 435.992 482.007 436.675Z" fill="#CCCCCC"/>
<path d="M518.854 382.381L339.161 237.173C339.094 237.119 339.037 237.052 338.996 236.975C338.954 236.899 338.928 236.815 338.919 236.729C338.91 236.643 338.918 236.555 338.942 236.472C338.966 236.389 339.007 236.311 339.061 236.243C339.116 236.176 339.183 236.12 339.259 236.078C339.335 236.036 339.418 236.01 339.504 236.001C339.59 235.992 339.677 235.999 339.76 236.024C339.843 236.048 339.921 236.089 339.988 236.143L519.682 381.352C519.749 381.406 519.805 381.473 519.847 381.549C519.889 381.626 519.915 381.709 519.924 381.796C519.933 381.882 519.926 381.97 519.901 382.053C519.877 382.136 519.836 382.214 519.782 382.282C519.728 382.35 519.66 382.406 519.584 382.447C519.508 382.489 519.425 382.515 519.339 382.524C519.253 382.534 519.165 382.526 519.082 382.501C518.999 382.477 518.922 382.436 518.854 382.381V382.381Z" fill="#CCCCCC"/>
<path d="M508.926 394.739L329.233 249.531C329.097 249.421 329.01 249.261 328.992 249.087C328.973 248.913 329.024 248.738 329.134 248.602C329.243 248.465 329.403 248.378 329.576 248.359C329.75 248.34 329.924 248.391 330.06 248.501L509.754 393.709C509.821 393.763 509.877 393.831 509.919 393.907C509.96 393.983 509.987 394.067 509.996 394.153C510.005 394.24 509.998 394.327 509.973 394.411C509.949 394.494 509.908 394.572 509.854 394.639C509.8 394.707 509.732 394.763 509.656 394.805C509.58 394.847 509.497 394.873 509.411 394.882C509.324 394.891 509.237 394.883 509.154 394.859C509.071 394.834 508.994 394.793 508.926 394.739Z" fill="#CCCCCC"/>
<path d="M498.998 407.097L319.304 261.889C319.168 261.779 319.081 261.619 319.062 261.444C319.044 261.27 319.095 261.095 319.205 260.959C319.314 260.822 319.474 260.735 319.647 260.716C319.821 260.697 319.995 260.749 320.132 260.859L499.825 406.067C499.892 406.121 499.949 406.189 499.99 406.265C500.031 406.341 500.058 406.425 500.067 406.511C500.076 406.597 500.068 406.685 500.044 406.768C500.02 406.851 499.979 406.929 499.925 406.997C499.87 407.064 499.803 407.12 499.727 407.162C499.651 407.204 499.568 407.23 499.482 407.239C499.396 407.248 499.309 407.241 499.226 407.216C499.143 407.192 499.065 407.151 498.998 407.097V407.097Z" fill="#CCCCCC"/>
<path d="M489.07 419.454L309.377 274.246C309.309 274.192 309.253 274.124 309.212 274.048C309.17 273.972 309.144 273.888 309.135 273.802C309.125 273.716 309.133 273.628 309.158 273.545C309.182 273.462 309.222 273.384 309.277 273.316C309.331 273.249 309.398 273.192 309.474 273.151C309.55 273.109 309.634 273.083 309.72 273.074C309.806 273.064 309.893 273.072 309.976 273.097C310.059 273.121 310.136 273.162 310.204 273.216L489.897 418.424C489.965 418.479 490.021 418.546 490.063 418.622C490.104 418.698 490.13 418.782 490.14 418.869C490.149 418.955 490.141 419.042 490.117 419.126C490.093 419.209 490.052 419.287 489.998 419.355C489.943 419.422 489.876 419.479 489.8 419.52C489.724 419.562 489.641 419.588 489.554 419.597C489.468 419.606 489.381 419.599 489.298 419.574C489.215 419.549 489.137 419.509 489.07 419.454Z" fill="#CCCCCC"/>
<path d="M542.584 440.021H53.359C53.1842 440.021 53.0165 439.952 52.8928 439.828C52.7692 439.704 52.6997 439.536 52.6997 439.36C52.6997 439.185 52.7692 439.017 52.8928 438.893C53.0165 438.769 53.1842 438.699 53.359 438.699H542.584C542.759 438.699 542.927 438.769 543.05 438.893C543.174 439.017 543.244 439.185 543.244 439.36C543.244 439.536 543.174 439.704 543.05 439.828C542.927 439.952 542.759 440.021 542.584 440.021Z" fill="#CCCCCC"/>
<path d="M270.259 340.033L260.912 340.032L256.467 303.874L270.263 303.876L270.259 340.033Z" fill="#FFB8B8"/>
<path d="M254.235 337.354H272.261V348.736H242.885C242.885 347.242 243.178 345.761 243.749 344.38C244.319 342.999 245.155 341.745 246.209 340.688C247.263 339.63 248.514 338.792 249.891 338.22C251.268 337.648 252.744 337.354 254.235 337.354Z" fill="#393846"/>
<path d="M174.766 340.033L165.419 340.032L160.974 303.874L174.769 303.876L174.766 340.033Z" fill="#FFB8B8"/>
<path d="M158.742 337.354H176.769V348.736H147.392C147.392 347.242 147.686 345.761 148.256 344.38C148.826 342.999 149.662 341.745 150.716 340.688C151.77 339.63 153.022 338.792 154.399 338.22C155.776 337.648 157.252 337.354 158.742 337.354Z" fill="#393846"/>
<path d="M205.986 71.825V67.7251C205.986 60.7116 208.764 53.9853 213.709 49.026C218.654 44.0667 225.361 41.2806 232.354 41.2806H232.354C239.347 41.2806 246.054 44.0667 250.999 49.026C255.944 53.9853 258.722 60.7116 258.722 67.7251V71.825C258.722 76.8813 256.719 81.7305 253.154 85.3058C249.589 88.8811 244.754 90.8897 239.713 90.8897H224.996C222.499 90.8897 220.027 90.3966 217.721 89.4385C215.415 88.4804 213.319 87.0761 211.554 85.3058C209.789 83.5355 208.388 81.4338 207.433 79.1208C206.478 76.8077 205.986 74.3287 205.986 71.825Z" fill="#393846"/>
<path d="M232.354 92.3003C243.445 92.3003 252.435 83.2835 252.435 72.1606C252.435 61.0378 243.445 52.021 232.354 52.021C221.263 52.021 212.273 61.0378 212.273 72.1606C212.273 83.2835 221.263 92.3003 232.354 92.3003Z" fill="#FFB8B8"/>
<path d="M123.124 141.378C123.939 140.606 124.913 140.023 125.977 139.67C127.041 139.316 128.169 139.201 129.282 139.332C130.396 139.463 131.467 139.838 132.42 140.429C133.373 141.02 134.186 141.813 134.8 142.754L152.015 139.488L156.545 149.495L132.17 153.765C130.527 154.695 128.6 154.989 126.756 154.59C124.911 154.191 123.276 153.128 122.161 151.601C121.046 150.074 120.529 148.19 120.706 146.306C120.884 144.422 121.744 142.668 123.124 141.378V141.378Z" fill="#FFB8B8"/>
<path d="M216.699 104.984L216.924 105.326L188.695 123.976L141.062 139.23C140.431 139.434 139.889 139.85 139.53 140.409C139.17 140.968 139.015 141.635 139.09 142.295L140.129 151.271C140.176 151.669 140.304 152.052 140.506 152.397C140.709 152.741 140.981 153.04 141.305 153.273C141.629 153.506 141.998 153.668 142.388 153.75C142.779 153.831 143.182 153.83 143.572 153.747L188.401 144.11C190.571 143.646 192.622 142.74 194.428 141.448L226.142 118.819C227.291 117.994 228.209 116.885 228.804 115.6C229.4 114.314 229.654 112.896 229.542 111.482C229.425 110.067 228.944 108.707 228.144 107.535C227.345 106.363 226.255 105.42 224.981 104.799C223.708 104.178 222.296 103.9 220.883 103.992C219.47 104.084 218.106 104.544 216.924 105.326L216.699 104.984Z" fill="#CCCCCC"/>
<path d="M261.078 329.772C260.361 329.772 259.659 329.563 259.058 329.17C258.458 328.776 257.984 328.216 257.695 327.557L214.844 221.368C214.744 221.138 214.576 220.944 214.363 220.812C214.15 220.681 213.901 220.618 213.651 220.632C213.401 220.646 213.161 220.736 212.964 220.891C212.767 221.046 212.622 221.258 212.548 221.498L177.588 324.877C177.441 325.358 177.197 325.803 176.871 326.186C176.545 326.569 176.145 326.882 175.695 327.104C175.244 327.326 174.753 327.453 174.252 327.478C173.751 327.502 173.25 327.424 172.78 327.247L161.056 322.838C160.42 322.601 159.862 322.192 159.444 321.655C159.026 321.119 158.764 320.477 158.688 319.801C153.414 273.724 199.405 157.419 199.87 156.25L199.999 155.926L241.924 165.227L242.011 165.322C258.737 183.623 272.486 299.047 275.072 322C275.169 322.829 274.981 323.666 274.539 324.374C274.098 325.081 273.429 325.617 272.643 325.892L262.295 329.562C261.905 329.701 261.493 329.772 261.078 329.772Z" fill="#01A299"/>
<path d="M224.956 168.971C214.798 168.971 203.473 166.94 199.988 158.556L199.907 158.364L200.016 158.185C202.767 153.658 206.404 145.934 204.449 144.484C200.599 141.629 198.731 136.932 198.896 130.524C199.256 116.612 208.708 104.261 222.416 99.7889H222.416C226.242 98.5609 230.136 97.5554 234.077 96.7776C236.951 96.1961 239.917 96.2601 242.763 96.9649C245.61 97.6698 248.265 98.9981 250.538 100.854C252.84 102.723 254.701 105.079 255.987 107.755C257.272 110.43 257.951 113.358 257.975 116.328C258.119 131.195 255.836 151.902 244.147 166.118C243.6 166.777 242.837 167.222 241.995 167.373C236.371 168.393 230.67 168.928 224.956 168.971Z" fill="#CCCCCC"/>
<path d="M221.178 168.414C221.731 166.425 223.044 164.736 224.832 163.713C226.619 162.689 228.738 162.415 230.726 162.949C231.132 163.063 231.528 163.21 231.91 163.389L244.981 151.459L254.071 157.601L235.379 174.19C234.535 175.717 233.206 176.916 231.604 177.597C230.002 178.279 228.219 178.403 226.538 177.951C225.559 177.683 224.643 177.222 223.842 176.596C223.042 175.97 222.373 175.191 221.875 174.304C221.376 173.417 221.058 172.44 220.938 171.429C220.819 170.418 220.9 169.393 221.178 168.414Z" fill="#FFB8B8"/>
<path d="M242.909 168.566C242.061 168.566 241.239 168.272 240.583 167.733L235.428 163.509C234.999 163.157 234.654 162.711 234.42 162.207C234.186 161.702 234.069 161.151 234.078 160.595C234.086 160.038 234.22 159.491 234.47 158.994C234.719 158.496 235.077 158.062 235.518 157.724L257.137 141.094C257.393 140.896 257.561 140.605 257.604 140.283C257.648 139.962 257.563 139.636 257.368 139.377L244.025 121.685C242.474 119.636 241.697 117.103 241.83 114.535C241.962 111.967 242.997 109.528 244.75 107.651C246.597 105.651 249.125 104.42 251.835 104.203C254.544 103.986 257.235 104.798 259.375 106.478L259.46 106.567L273.394 126.577C274.9 127.762 276.114 129.28 276.939 131.013C277.764 132.745 278.178 134.646 278.15 136.566C278.121 138.486 277.65 140.373 276.774 142.081C275.898 143.788 274.64 145.269 273.099 146.409L245.1 167.842C244.466 168.312 243.698 168.566 242.909 168.566Z" fill="#CCCCCC"/>
<path d="M214.566 66.4951V56.5026L232.354 48.7128L249.315 56.5026V66.4951C249.315 66.93 249.143 67.3471 248.836 67.6547C248.529 67.9623 248.113 68.135 247.68 68.135H216.202C215.768 68.135 215.352 67.9623 215.045 67.6547C214.739 67.3471 214.566 66.93 214.566 66.4951Z" fill="#393846"/>
<path d="M231.538 42.6062C228.922 34.2108 234.415 24.5892 242.535 21.2661C250.655 17.943 260.37 20.2659 267.222 25.7562C274.074 31.2465 278.325 39.47 280.577 47.9706C282.83 56.4712 283.257 65.3352 283.673 74.121C293.65 75.9589 300.437 87.8264 296.98 97.3908C293.524 106.955 280.732 111.707 271.898 106.708C263.064 101.709 260.505 88.2707 266.881 80.3586C269.898 76.6147 271.583 71.9685 271.67 67.1556C271.756 62.3428 270.239 57.6385 267.359 53.7878C264.479 49.9372 260.4 47.1603 255.769 45.8969C251.138 44.6336 246.218 44.9561 241.79 46.8132C236.873 48.8754 230.704 43.5174 231.538 42.6062Z" fill="#393846"/>
<path d="M128.835 102.347C116.89 102.275 105.094 99.8911 94.2102 95.3501C93.5623 95.0836 93.0124 94.6491 92.6274 94.0993C92.2424 93.5496 92.039 92.9084 92.042 92.2539V64.7796C92.0431 63.8796 92.4311 63.0166 93.1209 62.3802C93.8106 61.7438 94.7458 61.3858 95.7213 61.3848H161.948C162.923 61.3858 163.858 61.7438 164.548 62.3802C165.238 63.0167 165.626 63.8796 165.627 64.7796V92.254C165.63 92.9085 165.427 93.5496 165.042 94.0994C164.657 94.6491 164.107 95.0837 163.459 95.3501C152.575 99.8912 140.779 102.275 128.835 102.347Z" fill="#6C63FF"/>
<path d="M128.825 81.7154C128.334 81.7159 127.848 81.6179 127.395 81.4272L74.8784 59.2059C74.2012 58.9194 73.625 58.436 73.2243 57.818C72.8235 57.2 72.6165 56.4758 72.63 55.7388C72.6435 55.0017 72.8768 54.2856 73.2999 53.6828C73.7229 53.08 74.3163 52.618 75.0036 52.3566L127.521 32.3754C128.367 32.0521 129.302 32.0541 130.147 32.381L181.96 52.3622C182.644 52.6257 183.233 53.0877 183.653 53.6891C184.073 54.2905 184.305 55.0039 184.318 55.7381C184.332 56.4722 184.127 57.1937 183.729 57.8103C183.332 58.4268 182.76 58.9104 182.086 59.1991L130.272 81.42C129.814 81.6154 129.322 81.7159 128.825 81.7154Z" fill="#6C63FF"/>
<path d="M98.6928 112.187C101.402 112.187 103.598 109.984 103.598 107.267C103.598 104.55 101.402 102.347 98.6928 102.347C95.9835 102.347 93.7871 104.55 93.7871 107.267C93.7871 109.984 95.9835 112.187 98.6928 112.187Z" fill="#212121"/>
<path opacity="0.2" d="M182.266 56.0451L130.451 78.266C130.047 78.4392 129.612 78.5291 129.173 78.5301C128.734 78.5312 128.299 78.4435 127.894 78.2722L75.3772 56.0516C74.7177 55.7792 74.1675 55.2942 73.8135 54.6731C73.5819 55.0759 73.4384 55.5234 73.3925 55.986C73.3466 56.4486 73.3994 56.9157 73.5473 57.3562C73.6952 57.7968 73.9348 58.2008 74.2503 58.5414C74.5658 58.8819 74.95 59.1513 75.3772 59.3315L127.894 81.5521C128.299 81.7234 128.734 81.8111 129.173 81.8101C129.612 81.809 130.047 81.7192 130.451 81.5459L182.266 59.325C182.691 59.1432 183.072 58.873 183.386 58.5323C183.699 58.1916 183.937 57.7881 184.083 57.3484C184.23 56.9088 184.281 56.443 184.235 55.9819C184.189 55.5207 184.045 55.0746 183.815 54.6731C183.463 55.2892 182.919 55.7715 182.266 56.0451Z" fill="black"/>
<path d="M98.5857 105.907C98.8025 105.907 99.0105 105.798 99.1638 105.604C99.3172 105.409 99.4033 105.145 99.4033 104.87V70.1764L126.369 57.7186C126.586 57.7227 126.795 57.6174 126.951 57.4258C127.106 57.2343 127.196 56.9722 127.199 56.6972C127.202 56.4222 127.119 56.1568 126.968 55.9595C126.817 55.7622 126.61 55.649 126.393 55.6449L99.4276 68.1027C99.2107 68.0963 98.9949 68.1459 98.7935 68.2484C98.592 68.351 98.4091 68.5043 98.2557 68.6991C98.1007 68.8915 97.9777 69.1214 97.894 69.3751C97.8102 69.6289 97.7674 69.9013 97.7681 70.1764V104.87C97.7681 105.145 97.8542 105.409 98.0076 105.604C98.1609 105.798 98.3688 105.907 98.5857 105.907Z" fill="#212121"/>
<path d="M64.7516 45.7783L47.0952 28.6412" stroke="#212121" stroke-width="2" stroke-linecap="round" stroke-linejoin="round"/>
<path d="M71.442 39.0308L66.8364 18.2516" stroke="#212121" stroke-width="2" stroke-linecap="round" stroke-linejoin="round"/>
<path d="M59.9219 54.0132L35.1973 50.0291" stroke="#212121" stroke-width="2" stroke-linecap="round" stroke-linejoin="round"/>
</svg>
