<svg width="204" height="101" viewBox="0 0 204 101" fill="none" xmlns="http://www.w3.org/2000/svg">
<path d="M53.6972 68.7192C53.6972 70.657 53.3758 72.3503 52.7331 73.7989C52.0903 75.2379 51.2029 76.394 50.0709 77.267L53.4526 79.9436L50.3299 82.5914L45.8258 78.965C45.4036 79.0226 44.9815 79.0514 44.5594 79.0514C42.775 79.0514 41.1921 78.6388 39.8106 77.8138C38.4292 76.9888 37.3499 75.8088 36.5728 74.2738C35.8053 72.7388 35.4072 70.9736 35.3784 68.9782V67.8701C35.3784 65.8075 35.7526 63.9944 36.5009 62.4306C37.2588 60.8669 38.3332 59.6581 39.7243 58.8043C41.1249 57.9505 42.7271 57.5235 44.5306 57.5235C46.3054 57.5235 47.8884 57.9457 49.2794 58.7899C50.6705 59.6341 51.7497 60.8381 52.5172 62.4018C53.2943 63.956 53.6876 65.7404 53.6972 67.755V68.7192ZM48.5599 67.8414C48.5599 65.7596 48.2097 64.1814 47.5094 63.107C46.8187 62.0229 45.8258 61.4809 44.5306 61.4809C43.1971 61.4809 42.1946 62.0133 41.5231 63.0782C40.8515 64.1431 40.511 65.702 40.5014 67.755V68.7192C40.5014 70.7818 40.8419 72.3647 41.5231 73.4679C42.2042 74.5616 43.2163 75.1084 44.5594 75.1084C45.8449 75.1084 46.8283 74.5664 47.5094 73.4823C48.2001 72.3983 48.5503 70.8393 48.5599 68.8055V67.8414ZM67.0581 77.0799C66.0316 78.3942 64.6454 79.0514 62.8994 79.0514C61.1917 79.0514 59.8966 78.5573 59.014 77.5692C58.141 76.5714 57.7045 75.142 57.7045 73.2809V63.1933H62.554V73.3096C62.554 74.6431 63.2016 75.3099 64.4967 75.3099C65.6095 75.3099 66.401 74.9118 66.8711 74.1155V63.1933H71.7494V78.7635H67.2021L67.0581 77.0799ZM81.2681 78.7635H76.4042V63.1933H81.2681V78.7635ZM76.1164 59.1784C76.1164 58.4877 76.3658 57.9217 76.8647 57.4804C77.3635 57.0391 78.0111 56.8184 78.8074 56.8184C79.6036 56.8184 80.2512 57.0391 80.75 57.4804C81.2489 57.9217 81.4983 58.4877 81.4983 59.1784C81.4983 59.8692 81.2489 60.4352 80.75 60.8765C80.2512 61.3178 79.6036 61.5384 78.8074 61.5384C78.0111 61.5384 77.3635 61.3178 76.8647 60.8765C76.3658 60.4352 76.1164 59.8692 76.1164 59.1784ZM91.7222 75.0221H98.8166V78.7635H85.5919V76.0582L92.4993 66.9348H85.8941V63.1933H98.6583V65.8123L91.7222 75.0221ZM107.357 63.1933L107.515 65.0209C108.59 63.6106 110.072 62.9055 111.962 62.9055C113.583 62.9055 114.792 63.39 115.588 64.3589C116.394 65.3279 116.811 66.7861 116.84 68.7335V78.7635H111.976V68.935C111.976 68.1483 111.818 67.5727 111.501 67.2082C111.185 66.834 110.609 66.647 109.774 66.647C108.825 66.647 108.119 67.0211 107.659 67.7694V78.7635H102.809V63.1933H107.357ZM128.805 79.0514C126.416 79.0514 124.483 78.3414 123.006 76.9216C121.528 75.4922 120.79 73.6358 120.79 71.3526V70.9496C120.79 69.3571 121.082 67.9517 121.667 66.7333C122.262 65.5149 123.126 64.5748 124.258 63.9128C125.39 63.2413 126.733 62.9055 128.287 62.9055C130.474 62.9055 132.201 63.5866 133.467 64.9489C134.734 66.3016 135.367 68.1915 135.367 70.6187V72.5038H125.725C125.898 73.3768 126.277 74.0627 126.862 74.5616C127.448 75.0605 128.205 75.3099 129.136 75.3099C130.671 75.3099 131.87 74.7727 132.734 73.6982L134.95 76.3172C134.345 77.1518 133.487 77.8186 132.374 78.3175C131.271 78.8067 130.081 79.0514 128.805 79.0514ZM128.258 66.647C126.838 66.647 125.994 67.5871 125.725 69.4674H130.618V69.0933C130.637 68.3162 130.441 67.7166 130.028 67.2945C129.616 66.8628 129.026 66.647 128.258 66.647ZM147.217 74.3889C147.217 73.9764 147.001 73.6454 146.569 73.396C146.138 73.1466 145.317 72.8875 144.109 72.6189C142.9 72.3503 141.902 72.0001 141.115 71.5684C140.329 71.1271 139.729 70.5947 139.317 69.9711C138.904 69.3475 138.698 68.6328 138.698 67.827C138.698 66.3975 139.288 65.2223 140.468 64.3013C141.648 63.3708 143.192 62.9055 145.102 62.9055C147.155 62.9055 148.805 63.3708 150.052 64.3013C151.299 65.2319 151.923 66.4551 151.923 67.9709H147.059C147.059 66.7237 146.401 66.1001 145.087 66.1001C144.579 66.1001 144.152 66.244 143.806 66.5318C143.461 66.81 143.288 67.1602 143.288 67.5823C143.288 68.014 143.499 68.3642 143.922 68.6328C144.344 68.9014 145.015 69.1221 145.936 69.2948C146.867 69.4674 147.682 69.6737 148.383 69.9135C150.723 70.7194 151.894 72.1632 151.894 74.245C151.894 75.6648 151.261 76.8209 149.994 77.7131C148.737 78.6053 147.107 79.0514 145.102 79.0514C143.768 79.0514 142.578 78.8115 141.533 78.3318C140.487 77.8522 139.672 77.1998 139.086 76.3748C138.501 75.5497 138.209 74.6815 138.209 73.7701H142.742C142.761 74.4896 143.001 75.0173 143.461 75.3531C143.922 75.6792 144.512 75.8423 145.231 75.8423C145.893 75.8423 146.387 75.708 146.713 75.4394C147.049 75.1708 147.217 74.8206 147.217 74.3889ZM164.06 74.3889C164.06 73.9764 163.844 73.6454 163.413 73.396C162.981 73.1466 162.161 72.8875 160.952 72.6189C159.743 72.3503 158.745 72.0001 157.959 71.5684C157.172 71.1271 156.573 70.5947 156.16 69.9711C155.748 69.3475 155.541 68.6328 155.541 67.827C155.541 66.3975 156.131 65.2223 157.311 64.3013C158.491 63.3708 160.036 62.9055 161.945 62.9055C163.998 62.9055 165.648 63.3708 166.895 64.3013C168.142 65.2319 168.766 66.4551 168.766 67.9709H163.902C163.902 66.7237 163.245 66.1001 161.931 66.1001C161.422 66.1001 160.995 66.244 160.65 66.5318C160.304 66.81 160.132 67.1602 160.132 67.5823C160.132 68.014 160.343 68.3642 160.765 68.6328C161.187 68.9014 161.859 69.1221 162.78 69.2948C163.71 69.4674 164.526 69.6737 165.226 69.9135C167.567 70.7194 168.737 72.1632 168.737 74.245C168.737 75.6648 168.104 76.8209 166.838 77.7131C165.581 78.6053 163.95 79.0514 161.945 79.0514C160.611 79.0514 159.422 78.8115 158.376 78.3318C157.33 77.8522 156.515 77.1998 155.93 76.3748C155.345 75.5497 155.052 74.6815 155.052 73.7701H159.585C159.604 74.4896 159.844 75.0173 160.304 75.3531C160.765 75.6792 161.355 75.8423 162.074 75.8423C162.736 75.8423 163.23 75.708 163.557 75.4394C163.892 75.1708 164.06 74.8206 164.06 74.3889Z" fill="black" fill-opacity="0.87"/>
<path d="M93.7086 51.4636C86.8633 51.425 80.1035 50.1536 73.8661 47.7316C73.4948 47.5895 73.1796 47.3577 72.959 47.0645C72.7384 46.7713 72.6218 46.4293 72.6236 46.0803V31.4266C72.6242 30.9466 72.8465 30.4863 73.2418 30.1469C73.6371 29.8074 74.173 29.6165 74.7321 29.6159H112.685C113.244 29.6165 113.78 29.8074 114.175 30.1469C114.571 30.4863 114.793 30.9466 114.794 31.4266V46.0803C114.795 46.4294 114.679 46.7713 114.458 47.0645C114.237 47.3577 113.922 47.5895 113.551 47.7316C107.314 50.1536 100.554 51.425 93.7086 51.4636Z" fill="#6C63FF"/>
<path d="M93.9474 39.7466C93.6989 39.7468 93.4529 39.698 93.2238 39.603L66.6437 28.5301C66.3009 28.3874 66.0093 28.1465 65.8065 27.8385C65.6036 27.5306 65.4989 27.1697 65.5057 26.8025C65.5125 26.4352 65.6306 26.0784 65.8447 25.778C66.0588 25.4776 66.3592 25.2474 66.707 25.1171L93.2875 15.1605C93.7156 14.9994 94.1889 15.0004 94.6164 15.1633L120.841 25.1199C121.187 25.2512 121.485 25.4815 121.697 25.7811C121.91 26.0808 122.027 26.4363 122.034 26.8021C122.041 27.1679 121.937 27.5275 121.736 27.8347C121.535 28.1419 121.245 28.3829 120.904 28.5267L94.6798 39.5994C94.4482 39.6968 94.1991 39.7468 93.9474 39.7466Z" fill="#6C63FF"/>
<path opacity="0.2" d="M120.995 26.955L94.7707 38.0277C94.5663 38.114 94.3463 38.1588 94.124 38.1593C93.9016 38.1598 93.6814 38.1161 93.4766 38.0308L66.8964 26.9583C66.5626 26.8225 66.2841 26.5808 66.105 26.2714C65.9878 26.4721 65.9151 26.6951 65.8919 26.9256C65.8687 27.1561 65.8954 27.3888 65.9702 27.6084C66.0451 27.8279 66.1664 28.0292 66.3261 28.1989C66.4858 28.3686 66.6802 28.5028 66.8964 28.5927L93.4766 39.6652C93.6814 39.7505 93.9016 39.7942 94.124 39.7937C94.3463 39.7932 94.5663 39.7484 94.7707 39.6621L120.995 28.5894C121.211 28.4988 121.404 28.3642 121.562 28.1944C121.721 28.0246 121.841 27.8235 121.915 27.6045C121.989 27.3854 122.016 27.1533 121.992 26.9235C121.969 26.6937 121.896 26.4714 121.779 26.2714C121.602 26.5783 121.326 26.8187 120.995 26.955Z" fill="black"/>
<path d="M78.5419 58.6883C78.6531 58.6883 78.7598 58.6179 78.8384 58.4925C78.9171 58.367 78.9612 58.1969 78.9612 58.0196V35.6435L92.7914 27.6088C92.9026 27.6114 93.01 27.5435 93.0898 27.42C93.1696 27.2964 93.2154 27.1274 93.217 26.95C93.2187 26.7727 93.1761 26.6015 93.0986 26.4743C93.0211 26.347 92.9151 26.274 92.8039 26.2714L78.9737 34.3061C78.8624 34.302 78.7518 34.334 78.6485 34.4001C78.5451 34.4662 78.4513 34.5651 78.3727 34.6907C78.2932 34.8148 78.2301 34.9631 78.1871 35.1267C78.1442 35.2904 78.1222 35.4661 78.1226 35.6435V58.0196C78.1226 58.1969 78.1667 58.367 78.2454 58.4924C78.324 58.6178 78.4307 58.6883 78.5419 58.6883Z" fill="#212121"/>
</svg>
